<svg xmlns="http://www.w3.org/2000/svg" width="1120.596" height="777.916" viewBox="0 0 1120.596 777.916">
  <g id="Group_28" data-name="Group 28" transform="translate(-261.047 -89.706)">
    <circle id="Ellipse_378" data-name="Ellipse 378" cx="64" cy="64" r="64" transform="translate(409.639 128.706)" fill="#ff9e75"/>
    <path id="Path_59" data-name="Path 59" d="M563.68,404.164c0,151.011-89.774,203.739-200.516,203.739S162.649,555.175,162.649,404.164,363.165,61.042,363.165,61.042,563.68,253.152,563.68,404.164Z" transform="translate(221.343 28.664)" fill="#f2f2f2"/>
    <path id="Path_60" data-name="Path 60" d="M316.156,523.761l2.054-126.383,85.464-156.354L318.532,377.552l.923-56.827,58.9-113.12L319.7,305.687h0l1.66-102.206,63.074-90.058-62.812,73.986L322.658,0l-6.52,248.1.536-10.235L252.547,139.7l63.1,117.8-5.975,114.146-.178-3.029-73.928-103.3,73.7,114-.747,14.275-.134.215.061,1.172-15.159,289.6h20.254l2.43-149.584L389.5,421.285Z" transform="translate(261.047 89.706)" fill="#3f3d56"/>
    <path id="Path_61" data-name="Path 61" d="M1160.3,466.014c0,123.61-73.484,166.77-164.132,166.77s-164.132-43.16-164.132-166.77S996.165,185.152,996.165,185.152,1160.3,342.4,1160.3,466.014Z" transform="translate(221.343 28.664)" fill="#f2f2f2"/>
    <path id="Path_62" data-name="Path 62" d="M950.482,552.833l1.68-103.45L1022.12,321.4,952.426,433.154l.756-46.515,48.218-92.6-48.018,80.285h0l1.359-83.66,51.629-73.717-51.416,60.562.85-153.4-5.337,203.078.439-8.377-52.492-80.347,51.65,96.429-4.891,93.434-.146-2.48-60.513-84.553,60.33,93.314-.612,11.685-.109.176.05.959-12.409,237.05h16.579l1.989-122.441,60.178-93.085Z" transform="translate(261.047 89.706)" fill="#3f3d56"/>
    <ellipse id="Ellipse_379" data-name="Ellipse 379" cx="554.592" cy="28.034" rx="554.592" ry="28.034" transform="translate(261.047 742.151)" fill="#3f3d56"/>
    <ellipse id="Ellipse_380" data-name="Ellipse 380" cx="94.989" cy="4.802" rx="94.989" ry="4.802" transform="translate(1058.503 811.702)" fill="#3f3d56"/>
    <ellipse id="Ellipse_381" data-name="Ellipse 381" cx="94.989" cy="4.802" rx="94.989" ry="4.802" transform="translate(714.778 858.019)" fill="#3f3d56"/>
    <ellipse id="Ellipse_382" data-name="Ellipse 382" cx="217.014" cy="10.97" rx="217.014" ry="10.97" transform="translate(331.977 813.015)" fill="#3f3d56"/>
    <circle id="Ellipse_383" data-name="Ellipse 383" cx="79" cy="79" r="79" transform="translate(279.13 576.976)" fill="#2f2e41"/>
    <rect id="Rectangle_7" data-name="Rectangle 7" width="24" height="43" transform="translate(321.404 717.547) rotate(0.675)" fill="#2f2e41"/>
    <rect id="Rectangle_8" data-name="Rectangle 8" width="24" height="43" transform="translate(369.4 718.112) rotate(0.675)" fill="#2f2e41"/>
    <ellipse id="Ellipse_384" data-name="Ellipse 384" cx="7.5" cy="20" rx="7.5" ry="20" transform="translate(320.801 768.542) rotate(-89.325)" fill="#2f2e41"/>
    <ellipse id="Ellipse_385" data-name="Ellipse 385" cx="7.5" cy="20" rx="7.5" ry="20" transform="translate(368.809 768.108) rotate(-89.325)" fill="#2f2e41"/>
    <circle id="Ellipse_386" data-name="Ellipse 386" cx="27" cy="27" r="27" transform="translate(333.366 609.001)" fill="#fff"/>
    <circle id="Ellipse_387" data-name="Ellipse 387" cx="9" cy="9" r="9" transform="translate(351.366 627.001)" fill="#3f3d56"/>
    <path id="Path_63" data-name="Path 63" d="M61.026,552.946c-6.042-28.641,14.688-57.265,46.3-63.934s62.138,11.143,68.18,39.784-14.978,38.93-46.591,45.6S67.068,581.587,61.026,552.946Z" transform="translate(221.343 28.664)" fill="#9e78a8"/>
    <path id="Path_64" data-name="Path 64" d="M257.3,671.384c0,55.076-32.74,74.306-73.13,74.306q-1.4,0-2.8-.031c-1.871-.04-3.725-.129-5.556-.254-36.451-2.58-64.771-22.8-64.771-74.021,0-53.008,67.739-119.9,72.827-124.846l.009-.009c.2-.192.294-.285.294-.285S257.3,616.308,257.3,671.384Z" transform="translate(221.343 28.664)" fill="#451d50"/>
    <path id="Path_65" data-name="Path 65" d="M181.5,737.265l26.747-37.374-26.814,41.477-.071,4.291c-1.871-.04-3.725-.129-5.556-.254l2.883-55.1-.022-.428.049-.08.272-5.2-26.881-41.58,26.965,37.677.062,1.1,2.179-41.633L158.3,597.194,181.6,632.852l2.268-86.314.009-.294v.285l-.379,68.064L206.4,587.61l-23,32.847-.606,37.276,21.391-35.774L182.7,663.217l-.339,20.723,31.056-49.792L182.25,691.172Z" transform="translate(221.343 28.664)" fill="#9e78a8"/>
    <circle id="Ellipse_388" data-name="Ellipse 388" cx="79" cy="79" r="79" transform="translate(894.532 576.121)" fill="#2f2e41"/>
    <rect id="Rectangle_9" data-name="Rectangle 9" width="24" height="43" transform="matrix(0.956, -0.294, 0.294, 0.956, 957.332, 724.966)" fill="#2f2e41"/>
    <rect id="Rectangle_10" data-name="Rectangle 10" width="24" height="43" transform="matrix(0.956, -0.294, 0.294, 0.956, 1003.214, 710.866)" fill="#2f2e41"/>
    <ellipse id="Ellipse_389" data-name="Ellipse 389" cx="20" cy="7.5" rx="20" ry="7.5" transform="matrix(0.956, -0.294, 0.294, 0.956, 967.908, 759.378)" fill="#2f2e41"/>
    <ellipse id="Ellipse_390" data-name="Ellipse 390" cx="20" cy="7.5" rx="20" ry="7.5" transform="matrix(0.956, -0.294, 0.294, 0.956, 1013.496, 744.321)" fill="#2f2e41"/>
    <circle id="Ellipse_391" data-name="Ellipse 391" cx="27" cy="27" r="27" transform="translate(942.569 608.416)" fill="#fff"/>
    <circle id="Ellipse_392" data-name="Ellipse 392" cx="9" cy="9" r="9" transform="translate(960.569 626.416)" fill="#3f3d56"/>
    <path id="Path_66" data-name="Path 66" d="M657.355,578.743c-14.49-25.433-3.478-59.016,24.594-75.009s62.576-8.341,77.065,17.093-2.391,41.643-30.463,57.637S671.845,604.176,657.355,578.743Z" transform="translate(221.343 28.664)" fill="#9e78a8"/>
    <path id="Path_67" data-name="Path 67" d="M611.3,661.3c0,50.557-30.054,68.21-67.13,68.21q-1.288,0-2.573-.029c-1.718-.037-3.419-.119-5.1-.233-33.461-2.368-59.457-20.929-59.457-67.948,0-48.659,62.181-110.059,66.852-114.6l.008-.008c.18-.176.27-.262.27-.262S611.3,610.742,611.3,661.3Z" transform="translate(221.343 28.664)" fill="#451d50"/>
    <path id="Path_68" data-name="Path 68" d="M541.72,721.774l24.552-34.307-24.614,38.074-.065,3.939c-1.718-.037-3.419-.119-5.1-.233l2.646-50.582-.02-.393.045-.074.25-4.777-24.675-38.168,24.753,34.586.057,1.014,2-38.217L520.423,593.2l21.383,32.733,2.082-79.232.008-.27v.262l-.348,62.48L564.579,584.4l-21.117,30.152-.556,34.217,19.636-32.839L542.825,653.8l-.311,19.023,28.508-45.706-28.614,52.344Z" transform="translate(221.343 28.664)" fill="#9e78a8"/>
    <path id="Path_69" data-name="Path 69" d="M875.3,682.384c0,55.076-32.74,74.306-73.13,74.306q-1.4,0-2.8-.031c-1.871-.04-3.725-.129-5.556-.254-36.451-2.58-64.771-22.8-64.771-74.021,0-53.008,67.739-119.9,72.827-124.846l.009-.009c.2-.192.294-.285.294-.285S875.3,627.308,875.3,682.384Z" transform="translate(221.343 28.664)" fill="#451d50"/>
    <path id="Path_70" data-name="Path 70" d="M799.5,748.265l26.747-37.374-26.814,41.477-.071,4.291c-1.871-.04-3.725-.129-5.556-.254l2.883-55.1-.022-.428.049-.08.272-5.2-26.881-41.58,26.965,37.677.062,1.1,2.179-41.633L776.3,608.194,799.6,643.852l2.268-86.314.009-.294v.285l-.379,68.064L824.4,598.61l-23,32.847-.606,37.276,21.391-35.775L800.7,674.217l-.339,20.723,31.056-49.792L800.25,702.172Z" transform="translate(221.343 28.664)" fill="#9e78a8"/>
    <ellipse id="Ellipse_393" data-name="Ellipse 393" cx="12.4" cy="39.5" rx="12.4" ry="39.5" transform="translate(901.858 679.762) rotate(-64.626)" fill="#2f2e41"/>
    <ellipse id="Ellipse_394" data-name="Ellipse 394" cx="12.4" cy="39.5" rx="12.4" ry="39.5" transform="translate(292.584 677.298) rotate(-68.159)" fill="#2f2e41"/>
  </g>
</svg>
